<?xml version="1.0" encoding="UTF-8" standalone="no"?>
<!DOCTYPE svg PUBLIC "-//W3C//DTD SVG 1.1//EN"
 "http://www.w3.org/Graphics/SVG/1.1/DTD/svg11.dtd">
<!-- Generated by graphviz version 2.40.1 (0)
 -->
<!-- Title: snakemake_dag Pages: 1 -->
<svg width="453pt" height="620pt"
 viewBox="0.00 0.00 453.00 620.00" xmlns="http://www.w3.org/2000/svg" xmlns:xlink="http://www.w3.org/1999/xlink">
<g id="graph0" class="graph" transform="scale(1 1) rotate(0) translate(4 616)">
<title>snakemake_dag</title>
<polygon fill="#ffffff" stroke="transparent" points="-4,4 -4,-616 449,-616 449,4 -4,4"/>
<!-- 0 -->
<g id="node1" class="node">
<title>0</title>
<path fill="none" stroke="#56d8d8" stroke-width="2" d="M206,-36C206,-36 176,-36 176,-36 170,-36 164,-30 164,-24 164,-24 164,-12 164,-12 164,-6 170,0 176,0 176,0 206,0 206,0 212,0 218,-6 218,-12 218,-12 218,-24 218,-24 218,-30 212,-36 206,-36"/>
<text text-anchor="middle" x="191" y="-15.5" font-family="sans" font-size="10.00" fill="#000000">all</text>
</g>
<!-- 1 -->
<g id="node2" class="node">
<title>1</title>
<path fill="none" stroke="#d85656" stroke-width="2" d="M178,-252C178,-252 146,-252 146,-252 140,-252 134,-246 134,-240 134,-240 134,-228 134,-228 134,-222 140,-216 146,-216 146,-216 178,-216 178,-216 184,-216 190,-222 190,-228 190,-228 190,-240 190,-240 190,-246 184,-252 178,-252"/>
<text text-anchor="middle" x="162" y="-231.5" font-family="sans" font-size="10.00" fill="#000000">qc_base</text>
</g>
<!-- 1&#45;&gt;0 -->
<g id="edge1" class="edge">
<title>1&#45;&gt;0</title>
<path fill="none" stroke="#c0c0c0" stroke-width="2" d="M133.5933,-228.0813C108.5513,-221.197 73.5501,-207.1221 57,-180 48.6658,-166.342 52.1473,-159.2463 57,-144 72.4698,-95.3969 120.8004,-58.3932 154.9637,-37.4351"/>
<polygon fill="#c0c0c0" stroke="#c0c0c0" stroke-width="2" points="156.9476,-40.3274 163.7494,-32.2042 153.3665,-34.3127 156.9476,-40.3274"/>
</g>
<!-- 7 -->
<g id="node8" class="node">
<title>7</title>
<path fill="none" stroke="#afd856" stroke-width="2" d="M241.5,-180C241.5,-180 176.5,-180 176.5,-180 170.5,-180 164.5,-174 164.5,-168 164.5,-168 164.5,-156 164.5,-156 164.5,-150 170.5,-144 176.5,-144 176.5,-144 241.5,-144 241.5,-144 247.5,-144 253.5,-150 253.5,-156 253.5,-156 253.5,-168 253.5,-168 253.5,-174 247.5,-180 241.5,-180"/>
<text text-anchor="middle" x="209" y="-159.5" font-family="sans" font-size="10.00" fill="#000000">strand_flipping</text>
</g>
<!-- 1&#45;&gt;7 -->
<g id="edge13" class="edge">
<title>1&#45;&gt;7</title>
<path fill="none" stroke="#c0c0c0" stroke-width="2" d="M173.8601,-215.8314C179.1629,-207.7079 185.5237,-197.9637 191.3673,-189.0118"/>
<polygon fill="#c0c0c0" stroke="#c0c0c0" stroke-width="2" points="194.4448,-190.7003 196.9802,-180.4133 188.5831,-186.8739 194.4448,-190.7003"/>
</g>
<!-- 2 -->
<g id="node3" class="node">
<title>2</title>
<path fill="none" stroke="#56d882" stroke-width="2" d="M237,-612C237,-612 199,-612 199,-612 193,-612 187,-606 187,-600 187,-600 187,-588 187,-588 187,-582 193,-576 199,-576 199,-576 237,-576 237,-576 243,-576 249,-582 249,-588 249,-588 249,-600 249,-600 249,-606 243,-612 237,-612"/>
<text text-anchor="middle" x="218" y="-591.5" font-family="sans" font-size="10.00" fill="#000000">qc_target</text>
</g>
<!-- 2&#45;&gt;0 -->
<g id="edge2" class="edge">
<title>2&#45;&gt;0</title>
<path fill="none" stroke="#c0c0c0" stroke-width="2" d="M186.7659,-588.4343C126.487,-575.7027 0,-538.4495 0,-450 0,-450 0,-450 0,-162 0,-85.7655 98.2148,-44.8177 153.7873,-27.7503"/>
<polygon fill="#c0c0c0" stroke="#c0c0c0" stroke-width="2" points="155.0375,-31.0304 163.6344,-24.8382 153.0523,-24.3178 155.0375,-31.0304"/>
</g>
<!-- 3 -->
<g id="node4" class="node">
<title>3</title>
<path fill="none" stroke="#5682d8" stroke-width="2" d="M134,-180C134,-180 78,-180 78,-180 72,-180 66,-174 66,-168 66,-168 66,-156 66,-156 66,-150 72,-144 78,-144 78,-144 134,-144 134,-144 140,-144 146,-150 146,-156 146,-156 146,-168 146,-168 146,-174 140,-180 134,-180"/>
<text text-anchor="middle" x="106" y="-159.5" font-family="sans" font-size="10.00" fill="#000000">dedeuplicate</text>
</g>
<!-- 2&#45;&gt;3 -->
<g id="edge8" class="edge">
<title>2&#45;&gt;3</title>
<path fill="none" stroke="#c0c0c0" stroke-width="2" d="M190.6017,-575.8942C157.4443,-551.5597 106,-504.9501 106,-450 106,-450 106,-450 106,-306 106,-265.876 106,-219.4631 106,-190.4177"/>
<polygon fill="#c0c0c0" stroke="#c0c0c0" stroke-width="2" points="109.5001,-190.1853 106,-180.1854 102.5001,-190.1854 109.5001,-190.1853"/>
</g>
<!-- 5 -->
<g id="node6" class="node">
<title>5</title>
<path fill="none" stroke="#80d856" stroke-width="2" d="M416,-468C416,-468 358,-468 358,-468 352,-468 346,-462 346,-456 346,-456 346,-444 346,-444 346,-438 352,-432 358,-432 358,-432 416,-432 416,-432 422,-432 428,-438 428,-444 428,-444 428,-456 428,-456 428,-462 422,-468 416,-468"/>
<text text-anchor="middle" x="387" y="-447.5" font-family="sans" font-size="10.00" fill="#000000">calculate_het</text>
</g>
<!-- 2&#45;&gt;5 -->
<g id="edge10" class="edge">
<title>2&#45;&gt;5</title>
<path fill="none" stroke="#c0c0c0" stroke-width="2" d="M249.0587,-584.5599C273.4587,-575.9559 307.1824,-561.3145 331,-540 350.3567,-522.6775 365.3926,-497.096 374.9878,-477.6295"/>
<polygon fill="#c0c0c0" stroke="#c0c0c0" stroke-width="2" points="378.2627,-478.8916 379.3798,-468.3558 371.9363,-475.8954 378.2627,-478.8916"/>
</g>
<!-- 6 -->
<g id="node7" class="node">
<title>6</title>
<path fill="none" stroke="#56d8a9" stroke-width="2" d="M309.5,-540C309.5,-540 274.5,-540 274.5,-540 268.5,-540 262.5,-534 262.5,-528 262.5,-528 262.5,-516 262.5,-516 262.5,-510 268.5,-504 274.5,-504 274.5,-504 309.5,-504 309.5,-504 315.5,-504 321.5,-510 321.5,-516 321.5,-516 321.5,-528 321.5,-528 321.5,-534 315.5,-540 309.5,-540"/>
<text text-anchor="middle" x="292" y="-519.5" font-family="sans" font-size="10.00" fill="#000000">prune_ld</text>
</g>
<!-- 2&#45;&gt;6 -->
<g id="edge12" class="edge">
<title>2&#45;&gt;6</title>
<path fill="none" stroke="#c0c0c0" stroke-width="2" d="M236.6733,-575.8314C245.5249,-567.219 256.2486,-556.7851 265.8895,-547.4048"/>
<polygon fill="#c0c0c0" stroke="#c0c0c0" stroke-width="2" points="268.6061,-549.645 273.3326,-540.1628 263.7246,-544.6279 268.6061,-549.645"/>
</g>
<!-- 2&#45;&gt;7 -->
<g id="edge14" class="edge">
<title>2&#45;&gt;7</title>
<path fill="none" stroke="#c0c0c0" stroke-width="2" d="M218,-575.8146C218,-548.4983 218,-495.25 218,-450 218,-450 218,-450 218,-306 218,-265.7977 214.4625,-219.4047 211.8232,-190.385"/>
<polygon fill="#c0c0c0" stroke="#c0c0c0" stroke-width="2" points="215.283,-189.7923 210.8648,-180.1626 208.3136,-190.4457 215.283,-189.7923"/>
</g>
<!-- 3&#45;&gt;0 -->
<g id="edge3" class="edge">
<title>3&#45;&gt;0</title>
<path fill="none" stroke="#c0c0c0" stroke-width="2" d="M106.3441,-143.8015C107.4674,-124.6442 111.4708,-94.238 125,-72 132.6161,-59.4814 144.2088,-48.5709 155.5646,-39.8963"/>
<polygon fill="#c0c0c0" stroke="#c0c0c0" stroke-width="2" points="157.6836,-42.6832 163.7313,-33.9841 153.5787,-37.0131 157.6836,-42.6832"/>
</g>
<!-- 10 -->
<g id="node11" class="node">
<title>10</title>
<path fill="none" stroke="#d8ac56" stroke-width="2" d="M235.5,-108C235.5,-108 146.5,-108 146.5,-108 140.5,-108 134.5,-102 134.5,-96 134.5,-96 134.5,-84 134.5,-84 134.5,-78 140.5,-72 146.5,-72 146.5,-72 235.5,-72 235.5,-72 241.5,-72 247.5,-78 247.5,-84 247.5,-84 247.5,-96 247.5,-96 247.5,-102 241.5,-108 235.5,-108"/>
<text text-anchor="middle" x="191" y="-93" font-family="sans" font-size="10.00" fill="#000000">generate_final_data</text>
<text text-anchor="middle" x="191" y="-82" font-family="sans" font-size="10.00" fill="#000000">sample: AN</text>
</g>
<!-- 3&#45;&gt;10 -->
<g id="edge20" class="edge">
<title>3&#45;&gt;10</title>
<path fill="none" stroke="#c0c0c0" stroke-width="2" d="M127.4491,-143.8314C137.8178,-135.0485 150.4229,-124.3712 161.6646,-114.8489"/>
<polygon fill="#c0c0c0" stroke="#c0c0c0" stroke-width="2" points="164.1895,-117.297 169.5578,-108.1628 159.6651,-111.9556 164.1895,-117.297"/>
</g>
<!-- 4 -->
<g id="node5" class="node">
<title>4</title>
<path fill="none" stroke="#d88556" stroke-width="2" d="M413,-396C413,-396 377,-396 377,-396 371,-396 365,-390 365,-384 365,-384 365,-372 365,-372 365,-366 371,-360 377,-360 377,-360 413,-360 413,-360 419,-360 425,-366 425,-372 425,-372 425,-384 425,-384 425,-390 419,-396 413,-396"/>
<text text-anchor="middle" x="395" y="-375.5" font-family="sans" font-size="10.00" fill="#000000">filter_het</text>
</g>
<!-- 4&#45;&gt;0 -->
<g id="edge4" class="edge">
<title>4&#45;&gt;0</title>
<path fill="none" stroke="#c0c0c0" stroke-width="2" d="M405.8493,-359.611C420.5547,-332.8991 445,-281.3709 445,-234 445,-234 445,-234 445,-162 445,-63.6399 299.0742,-31.6572 228.4359,-21.9374"/>
<polygon fill="#c0c0c0" stroke="#c0c0c0" stroke-width="2" points="228.549,-18.423 218.1824,-20.6106 227.6506,-25.3651 228.549,-18.423"/>
</g>
<!-- 8 -->
<g id="node9" class="node">
<title>8</title>
<path fill="none" stroke="#d6d856" stroke-width="2" d="M383,-252C383,-252 345,-252 345,-252 339,-252 333,-246 333,-240 333,-240 333,-228 333,-228 333,-222 339,-216 345,-216 345,-216 383,-216 383,-216 389,-216 395,-222 395,-228 395,-228 395,-240 395,-240 395,-246 389,-252 383,-252"/>
<text text-anchor="middle" x="364" y="-231.5" font-family="sans" font-size="10.00" fill="#000000">filter_sex</text>
</g>
<!-- 4&#45;&gt;8 -->
<g id="edge16" class="edge">
<title>4&#45;&gt;8</title>
<path fill="none" stroke="#c0c0c0" stroke-width="2" d="M394.3664,-359.8291C393.4048,-341.4774 390.9981,-312.4283 385,-288 382.8278,-279.1531 379.5644,-269.8077 376.2537,-261.4236"/>
<polygon fill="#c0c0c0" stroke="#c0c0c0" stroke-width="2" points="379.4598,-260.0176 372.408,-252.1105 372.9897,-262.6894 379.4598,-260.0176"/>
</g>
<!-- 9 -->
<g id="node10" class="node">
<title>9</title>
<path fill="none" stroke="#56a9d8" stroke-width="2" d="M364,-324C364,-324 320,-324 320,-324 314,-324 308,-318 308,-312 308,-312 308,-300 308,-300 308,-294 314,-288 320,-288 320,-288 364,-288 364,-288 370,-288 376,-294 376,-300 376,-300 376,-312 376,-312 376,-318 370,-324 364,-324"/>
<text text-anchor="middle" x="342" y="-303.5" font-family="sans" font-size="10.00" fill="#000000">check_sex</text>
</g>
<!-- 4&#45;&gt;9 -->
<g id="edge17" class="edge">
<title>4&#45;&gt;9</title>
<path fill="none" stroke="#c0c0c0" stroke-width="2" d="M381.6259,-359.8314C375.5838,-351.6232 368.3237,-341.7606 361.6779,-332.7323"/>
<polygon fill="#c0c0c0" stroke="#c0c0c0" stroke-width="2" points="364.3011,-330.3918 355.5542,-324.4133 358.6637,-334.5415 364.3011,-330.3918"/>
</g>
<!-- 5&#45;&gt;4 -->
<g id="edge9" class="edge">
<title>5&#45;&gt;4</title>
<path fill="none" stroke="#c0c0c0" stroke-width="2" d="M389.0187,-431.8314C389.8743,-424.131 390.8917,-414.9743 391.8426,-406.4166"/>
<polygon fill="#c0c0c0" stroke="#c0c0c0" stroke-width="2" points="395.3283,-406.7386 392.9541,-396.4133 388.3711,-405.9656 395.3283,-406.7386"/>
</g>
<!-- 6&#45;&gt;5 -->
<g id="edge11" class="edge">
<title>6&#45;&gt;5</title>
<path fill="none" stroke="#c0c0c0" stroke-width="2" d="M315.9725,-503.8314C327.7861,-494.8779 342.1972,-483.9558 354.9435,-474.2955"/>
<polygon fill="#c0c0c0" stroke="#c0c0c0" stroke-width="2" points="357.1795,-476.9925 363.0352,-468.1628 352.9514,-471.4137 357.1795,-476.9925"/>
</g>
<!-- 6&#45;&gt;9 -->
<g id="edge18" class="edge">
<title>6&#45;&gt;9</title>
<path fill="none" stroke="#c0c0c0" stroke-width="2" d="M296.177,-503.9555C304.8902,-466.3144 325.0586,-379.1867 335.4897,-334.1246"/>
<polygon fill="#c0c0c0" stroke="#c0c0c0" stroke-width="2" points="338.9543,-334.6768 337.7998,-324.1451 332.1347,-333.0981 338.9543,-334.6768"/>
</g>
<!-- 11 -->
<g id="node12" class="node">
<title>11</title>
<path fill="none" stroke="#59d856" stroke-width="2" d="M366.5,-180C366.5,-180 283.5,-180 283.5,-180 277.5,-180 271.5,-174 271.5,-168 271.5,-168 271.5,-156 271.5,-156 271.5,-150 277.5,-144 283.5,-144 283.5,-144 366.5,-144 366.5,-144 372.5,-144 378.5,-150 378.5,-156 378.5,-156 378.5,-168 378.5,-168 378.5,-174 372.5,-180 366.5,-180"/>
<text text-anchor="middle" x="325" y="-159.5" font-family="sans" font-size="10.00" fill="#000000">check_relatedness</text>
</g>
<!-- 6&#45;&gt;11 -->
<g id="edge23" class="edge">
<title>6&#45;&gt;11</title>
<path fill="none" stroke="#c0c0c0" stroke-width="2" d="M289.5136,-503.855C285.9987,-476.5902 280,-423.4068 280,-378 280,-378 280,-378 280,-306 280,-263.8263 297.802,-217.738 311.0122,-189.3433"/>
<polygon fill="#c0c0c0" stroke="#c0c0c0" stroke-width="2" points="314.2895,-190.6034 315.4567,-180.0731 307.9774,-187.5772 314.2895,-190.6034"/>
</g>
<!-- 7&#45;&gt;0 -->
<g id="edge5" class="edge">
<title>7&#45;&gt;0</title>
<path fill="none" stroke="#c0c0c0" stroke-width="2" d="M231.2213,-143.9032C241.1308,-134.3888 251.74,-121.8349 257,-108 262.6861,-93.0445 263.8517,-86.4587 257,-72 250.5209,-58.3276 238.6969,-46.9657 226.8279,-38.2486"/>
<polygon fill="#c0c0c0" stroke="#c0c0c0" stroke-width="2" points="228.4809,-35.1384 218.2532,-32.3733 224.5242,-40.9129 228.4809,-35.1384"/>
</g>
<!-- 7&#45;&gt;10 -->
<g id="edge21" class="edge">
<title>7&#45;&gt;10</title>
<path fill="none" stroke="#c0c0c0" stroke-width="2" d="M204.4578,-143.8314C202.5116,-136.0463 200.1932,-126.7729 198.0337,-118.1347"/>
<polygon fill="#c0c0c0" stroke="#c0c0c0" stroke-width="2" points="201.4242,-117.2658 195.6033,-108.4133 194.6332,-118.9636 201.4242,-117.2658"/>
</g>
<!-- 8&#45;&gt;0 -->
<g id="edge6" class="edge">
<title>8&#45;&gt;0</title>
<path fill="none" stroke="#c0c0c0" stroke-width="2" d="M376.4195,-215.8025C387.6275,-196.9158 400.5799,-166.9789 388,-144 353.9642,-81.8289 274.7316,-45.8554 227.7762,-29.262"/>
<polygon fill="#c0c0c0" stroke="#c0c0c0" stroke-width="2" points="228.8688,-25.9367 218.2742,-26.0128 226.6039,-32.5602 228.8688,-25.9367"/>
</g>
<!-- 8&#45;&gt;11 -->
<g id="edge22" class="edge">
<title>8&#45;&gt;11</title>
<path fill="none" stroke="#c0c0c0" stroke-width="2" d="M354.1587,-215.8314C349.8043,-207.7925 344.5902,-198.1666 339.7831,-189.2918"/>
<polygon fill="#c0c0c0" stroke="#c0c0c0" stroke-width="2" points="342.8143,-187.5392 334.9739,-180.4133 336.6592,-190.8732 342.8143,-187.5392"/>
</g>
<!-- 9&#45;&gt;8 -->
<g id="edge15" class="edge">
<title>9&#45;&gt;8</title>
<path fill="none" stroke="#c0c0c0" stroke-width="2" d="M347.5515,-287.8314C349.9303,-280.0463 352.7638,-270.7729 355.4033,-262.1347"/>
<polygon fill="#c0c0c0" stroke="#c0c0c0" stroke-width="2" points="358.7987,-262.9996 358.3737,-252.4133 352.1042,-260.954 358.7987,-262.9996"/>
</g>
<!-- 10&#45;&gt;0 -->
<g id="edge7" class="edge">
<title>10&#45;&gt;0</title>
<path fill="none" stroke="#c0c0c0" stroke-width="2" d="M191,-71.8314C191,-64.131 191,-54.9743 191,-46.4166"/>
<polygon fill="#c0c0c0" stroke="#c0c0c0" stroke-width="2" points="194.5001,-46.4132 191,-36.4133 187.5001,-46.4133 194.5001,-46.4132"/>
</g>
<!-- 11&#45;&gt;10 -->
<g id="edge19" class="edge">
<title>11&#45;&gt;10</title>
<path fill="none" stroke="#c0c0c0" stroke-width="2" d="M291.1861,-143.8314C273.7293,-134.4516 252.2513,-122.9112 233.6648,-112.9244"/>
<polygon fill="#c0c0c0" stroke="#c0c0c0" stroke-width="2" points="235.2686,-109.8129 224.803,-108.1628 231.9554,-115.9792 235.2686,-109.8129"/>
</g>
</g>
</svg>
