<?xml version="1.0" encoding="UTF-8" standalone="no"?>
<!DOCTYPE svg PUBLIC "-//W3C//DTD SVG 1.1//EN"
 "http://www.w3.org/Graphics/SVG/1.1/DTD/svg11.dtd">
<!-- Generated by graphviz version 2.40.1 (0)
 -->
<!-- Title: snakemake_dag Pages: 1 -->
<svg width="464pt" height="620pt"
 viewBox="0.00 0.00 464.00 620.00" xmlns="http://www.w3.org/2000/svg" xmlns:xlink="http://www.w3.org/1999/xlink">
<g id="graph0" class="graph" transform="scale(1 1) rotate(0) translate(4 616)">
<title>snakemake_dag</title>
<polygon fill="#ffffff" stroke="transparent" points="-4,4 -4,-616 460,-616 460,4 -4,4"/>
<!-- 0 -->
<g id="node1" class="node">
<title>0</title>
<path fill="none" stroke="#d85656" stroke-width="2" d="M143.5,-180C143.5,-180 78.5,-180 78.5,-180 72.5,-180 66.5,-174 66.5,-168 66.5,-168 66.5,-156 66.5,-156 66.5,-150 72.5,-144 78.5,-144 78.5,-144 143.5,-144 143.5,-144 149.5,-144 155.5,-150 155.5,-156 155.5,-156 155.5,-168 155.5,-168 155.5,-174 149.5,-180 143.5,-180"/>
<text text-anchor="middle" x="111" y="-159.5" font-family="sans" font-size="10.00" fill="#000000">strand_flipping</text>
</g>
<!-- 4 -->
<g id="node5" class="node">
<title>4</title>
<path fill="none" stroke="#afd856" stroke-width="2" d="M199,-36C199,-36 169,-36 169,-36 163,-36 157,-30 157,-24 157,-24 157,-12 157,-12 157,-6 163,0 169,0 169,0 199,0 199,0 205,0 211,-6 211,-12 211,-12 211,-24 211,-24 211,-30 205,-36 199,-36"/>
<text text-anchor="middle" x="184" y="-15.5" font-family="sans" font-size="10.00" fill="#000000">all</text>
</g>
<!-- 0&#45;&gt;4 -->
<g id="edge7" class="edge">
<title>0&#45;&gt;4</title>
<path fill="none" stroke="#c0c0c0" stroke-width="2" d="M120.2455,-143.7623C132.8612,-118.8764 155.5694,-74.0822 170.2028,-45.2165"/>
<polygon fill="#c0c0c0" stroke="#c0c0c0" stroke-width="2" points="173.4297,-46.5916 174.8296,-36.0896 167.1861,-43.4264 173.4297,-46.5916"/>
</g>
<!-- 9 -->
<g id="node10" class="node">
<title>9</title>
<path fill="none" stroke="#56d8d8" stroke-width="2" d="M351.5,-108C351.5,-108 262.5,-108 262.5,-108 256.5,-108 250.5,-102 250.5,-96 250.5,-96 250.5,-84 250.5,-84 250.5,-78 256.5,-72 262.5,-72 262.5,-72 351.5,-72 351.5,-72 357.5,-72 363.5,-78 363.5,-84 363.5,-84 363.5,-96 363.5,-96 363.5,-102 357.5,-108 351.5,-108"/>
<text text-anchor="middle" x="307" y="-87.5" font-family="sans" font-size="10.00" fill="#000000">generate_final_data</text>
</g>
<!-- 0&#45;&gt;9 -->
<g id="edge18" class="edge">
<title>0&#45;&gt;9</title>
<path fill="none" stroke="#c0c0c0" stroke-width="2" d="M155.9664,-145.4817C183.3996,-135.4042 218.7671,-122.4121 248.3801,-111.5338"/>
<polygon fill="#c0c0c0" stroke="#c0c0c0" stroke-width="2" points="249.5953,-114.8162 257.7752,-108.0826 247.1816,-108.2455 249.5953,-114.8162"/>
</g>
<!-- 1 -->
<g id="node2" class="node">
<title>1</title>
<path fill="none" stroke="#d88556" stroke-width="2" d="M246,-468C246,-468 188,-468 188,-468 182,-468 176,-462 176,-456 176,-456 176,-444 176,-444 176,-438 182,-432 188,-432 188,-432 246,-432 246,-432 252,-432 258,-438 258,-444 258,-444 258,-456 258,-456 258,-462 252,-468 246,-468"/>
<text text-anchor="middle" x="217" y="-447.5" font-family="sans" font-size="10.00" fill="#000000">calculate_het</text>
</g>
<!-- 6 -->
<g id="node7" class="node">
<title>6</title>
<path fill="none" stroke="#59d856" stroke-width="2" d="M238,-396C238,-396 202,-396 202,-396 196,-396 190,-390 190,-384 190,-384 190,-372 190,-372 190,-366 196,-360 202,-360 202,-360 238,-360 238,-360 244,-360 250,-366 250,-372 250,-372 250,-384 250,-384 250,-390 244,-396 238,-396"/>
<text text-anchor="middle" x="220" y="-375.5" font-family="sans" font-size="10.00" fill="#000000">filter_het</text>
</g>
<!-- 1&#45;&gt;6 -->
<g id="edge15" class="edge">
<title>1&#45;&gt;6</title>
<path fill="none" stroke="#c0c0c0" stroke-width="2" d="M217.757,-431.8314C218.0779,-424.131 218.4594,-414.9743 218.816,-406.4166"/>
<polygon fill="#c0c0c0" stroke="#c0c0c0" stroke-width="2" points="222.3133,-406.5503 219.2328,-396.4133 215.3194,-406.2589 222.3133,-406.5503"/>
</g>
<!-- 2 -->
<g id="node3" class="node">
<title>2</title>
<path fill="none" stroke="#d8ac56" stroke-width="2" d="M81,-252C81,-252 49,-252 49,-252 43,-252 37,-246 37,-240 37,-240 37,-228 37,-228 37,-222 43,-216 49,-216 49,-216 81,-216 81,-216 87,-216 93,-222 93,-228 93,-228 93,-240 93,-240 93,-246 87,-252 81,-252"/>
<text text-anchor="middle" x="65" y="-231.5" font-family="sans" font-size="10.00" fill="#000000">qc_base</text>
</g>
<!-- 2&#45;&gt;0 -->
<g id="edge2" class="edge">
<title>2&#45;&gt;0</title>
<path fill="none" stroke="#c0c0c0" stroke-width="2" d="M76.6077,-215.8314C81.7978,-207.7079 88.0232,-197.9637 93.7425,-189.0118"/>
<polygon fill="#c0c0c0" stroke="#c0c0c0" stroke-width="2" points="96.8015,-190.7246 99.236,-180.4133 90.9026,-186.9559 96.8015,-190.7246"/>
</g>
<!-- 2&#45;&gt;4 -->
<g id="edge10" class="edge">
<title>2&#45;&gt;4</title>
<path fill="none" stroke="#c0c0c0" stroke-width="2" d="M58.604,-215.9966C53.0279,-197.2681 47.2288,-167.4586 57,-144 75.4482,-99.7098 117.8756,-62.9919 148.6255,-40.8347"/>
<polygon fill="#c0c0c0" stroke="#c0c0c0" stroke-width="2" points="150.7906,-43.5911 156.9593,-34.9772 146.7653,-37.8641 150.7906,-43.5911"/>
</g>
<!-- 3 -->
<g id="node4" class="node">
<title>3</title>
<path fill="none" stroke="#d6d856" stroke-width="2" d="M345.5,-180C345.5,-180 262.5,-180 262.5,-180 256.5,-180 250.5,-174 250.5,-168 250.5,-168 250.5,-156 250.5,-156 250.5,-150 256.5,-144 262.5,-144 262.5,-144 345.5,-144 345.5,-144 351.5,-144 357.5,-150 357.5,-156 357.5,-156 357.5,-168 357.5,-168 357.5,-174 351.5,-180 345.5,-180"/>
<text text-anchor="middle" x="304" y="-159.5" font-family="sans" font-size="10.00" fill="#000000">check_relatedness</text>
</g>
<!-- 3&#45;&gt;9 -->
<g id="edge17" class="edge">
<title>3&#45;&gt;9</title>
<path fill="none" stroke="#c0c0c0" stroke-width="2" d="M304.757,-143.8314C305.0779,-136.131 305.4594,-126.9743 305.816,-118.4166"/>
<polygon fill="#c0c0c0" stroke="#c0c0c0" stroke-width="2" points="309.3133,-118.5503 306.2328,-108.4133 302.3194,-118.2589 309.3133,-118.5503"/>
</g>
<!-- 5 -->
<g id="node6" class="node">
<title>5</title>
<path fill="none" stroke="#80d856" stroke-width="2" d="M298.5,-540C298.5,-540 263.5,-540 263.5,-540 257.5,-540 251.5,-534 251.5,-528 251.5,-528 251.5,-516 251.5,-516 251.5,-510 257.5,-504 263.5,-504 263.5,-504 298.5,-504 298.5,-504 304.5,-504 310.5,-510 310.5,-516 310.5,-516 310.5,-528 310.5,-528 310.5,-534 304.5,-540 298.5,-540"/>
<text text-anchor="middle" x="281" y="-519.5" font-family="sans" font-size="10.00" fill="#000000">prune_ld</text>
</g>
<!-- 5&#45;&gt;1 -->
<g id="edge4" class="edge">
<title>5&#45;&gt;1</title>
<path fill="none" stroke="#c0c0c0" stroke-width="2" d="M264.8501,-503.8314C257.3283,-495.3694 248.2435,-485.1489 240.0196,-475.8971"/>
<polygon fill="#c0c0c0" stroke="#c0c0c0" stroke-width="2" points="242.627,-473.5621 233.3673,-468.4133 237.3951,-478.2127 242.627,-473.5621"/>
</g>
<!-- 5&#45;&gt;3 -->
<g id="edge6" class="edge">
<title>5&#45;&gt;3</title>
<path fill="none" stroke="#c0c0c0" stroke-width="2" d="M295.4256,-503.6392C314.5751,-477.37 346,-426.8235 346,-378 346,-378 346,-378 346,-306 346,-264.0688 329.3848,-217.918 317.0552,-189.4435"/>
<polygon fill="#c0c0c0" stroke="#c0c0c0" stroke-width="2" points="320.1775,-187.8513 312.9071,-180.1447 313.7848,-190.7032 320.1775,-187.8513"/>
</g>
<!-- 11 -->
<g id="node12" class="node">
<title>11</title>
<path fill="none" stroke="#5682d8" stroke-width="2" d="M306,-324C306,-324 262,-324 262,-324 256,-324 250,-318 250,-312 250,-312 250,-300 250,-300 250,-294 256,-288 262,-288 262,-288 306,-288 306,-288 312,-288 318,-294 318,-300 318,-300 318,-312 318,-312 318,-318 312,-324 306,-324"/>
<text text-anchor="middle" x="284" y="-303.5" font-family="sans" font-size="10.00" fill="#000000">check_sex</text>
</g>
<!-- 5&#45;&gt;11 -->
<g id="edge23" class="edge">
<title>5&#45;&gt;11</title>
<path fill="none" stroke="#c0c0c0" stroke-width="2" d="M281.2506,-503.9555C281.7723,-466.3938 282.9784,-379.5541 283.6054,-334.4103"/>
<polygon fill="#c0c0c0" stroke="#c0c0c0" stroke-width="2" points="287.1087,-334.1927 283.748,-324.1451 280.1094,-334.0955 287.1087,-334.1927"/>
</g>
<!-- 6&#45;&gt;4 -->
<g id="edge8" class="edge">
<title>6&#45;&gt;4</title>
<path fill="none" stroke="#c0c0c0" stroke-width="2" d="M212.3653,-359.7257C201.7979,-332.7325 184,-280.3849 184,-234 184,-234 184,-234 184,-162 184,-121.876 184,-75.4631 184,-46.4177"/>
<polygon fill="#c0c0c0" stroke="#c0c0c0" stroke-width="2" points="187.5001,-46.1853 184,-36.1854 180.5001,-46.1854 187.5001,-46.1853"/>
</g>
<!-- 10 -->
<g id="node11" class="node">
<title>10</title>
<path fill="none" stroke="#56a9d8" stroke-width="2" d="M283,-252C283,-252 245,-252 245,-252 239,-252 233,-246 233,-240 233,-240 233,-228 233,-228 233,-222 239,-216 245,-216 245,-216 283,-216 283,-216 289,-216 295,-222 295,-228 295,-228 295,-240 295,-240 295,-246 289,-252 283,-252"/>
<text text-anchor="middle" x="264" y="-231.5" font-family="sans" font-size="10.00" fill="#000000">filter_sex</text>
</g>
<!-- 6&#45;&gt;10 -->
<g id="edge20" class="edge">
<title>6&#45;&gt;10</title>
<path fill="none" stroke="#c0c0c0" stroke-width="2" d="M223.2795,-359.8176C226.8145,-341.4569 233.0235,-312.4009 241,-288 243.8673,-279.2285 247.5843,-269.9051 251.191,-261.518"/>
<polygon fill="#c0c0c0" stroke="#c0c0c0" stroke-width="2" points="254.472,-262.7527 255.3167,-252.1916 248.0703,-259.9208 254.472,-262.7527"/>
</g>
<!-- 6&#45;&gt;11 -->
<g id="edge22" class="edge">
<title>6&#45;&gt;11</title>
<path fill="none" stroke="#c0c0c0" stroke-width="2" d="M236.1499,-359.8314C243.6717,-351.3694 252.7565,-341.1489 260.9804,-331.8971"/>
<polygon fill="#c0c0c0" stroke="#c0c0c0" stroke-width="2" points="263.6049,-334.2127 267.6327,-324.4133 258.373,-329.5621 263.6049,-334.2127"/>
</g>
<!-- 7 -->
<g id="node8" class="node">
<title>7</title>
<path fill="none" stroke="#56d882" stroke-width="2" d="M236,-612C236,-612 198,-612 198,-612 192,-612 186,-606 186,-600 186,-600 186,-588 186,-588 186,-582 192,-576 198,-576 198,-576 236,-576 236,-576 242,-576 248,-582 248,-588 248,-588 248,-600 248,-600 248,-606 242,-612 236,-612"/>
<text text-anchor="middle" x="217" y="-591.5" font-family="sans" font-size="10.00" fill="#000000">qc_target</text>
</g>
<!-- 7&#45;&gt;0 -->
<g id="edge1" class="edge">
<title>7&#45;&gt;0</title>
<path fill="none" stroke="#c0c0c0" stroke-width="2" d="M196.5898,-575.7087C170.5938,-550.291 129,-501.5656 129,-450 129,-450 129,-450 129,-306 129,-265.5637 121.9251,-219.2302 116.6463,-190.2873"/>
<polygon fill="#c0c0c0" stroke="#c0c0c0" stroke-width="2" points="120.0175,-189.2756 114.7296,-180.0947 113.1381,-190.5693 120.0175,-189.2756"/>
</g>
<!-- 7&#45;&gt;1 -->
<g id="edge3" class="edge">
<title>7&#45;&gt;1</title>
<path fill="none" stroke="#c0c0c0" stroke-width="2" d="M217,-575.7623C217,-551.201 217,-507.2474 217,-478.3541"/>
<polygon fill="#c0c0c0" stroke="#c0c0c0" stroke-width="2" points="220.5001,-478.0896 217,-468.0896 213.5001,-478.0897 220.5001,-478.0896"/>
</g>
<!-- 7&#45;&gt;4 -->
<g id="edge9" class="edge">
<title>7&#45;&gt;4</title>
<path fill="none" stroke="#c0c0c0" stroke-width="2" d="M185.9092,-588.3862C125.9068,-575.5682 0,-538.1672 0,-450 0,-450 0,-450 0,-162 0,-87.9166 93.6474,-46.2476 147.3243,-28.4484"/>
<polygon fill="#c0c0c0" stroke="#c0c0c0" stroke-width="2" points="148.3926,-31.7815 156.8502,-25.4003 146.2592,-25.1145 148.3926,-31.7815"/>
</g>
<!-- 7&#45;&gt;5 -->
<g id="edge14" class="edge">
<title>7&#45;&gt;5</title>
<path fill="none" stroke="#c0c0c0" stroke-width="2" d="M233.1499,-575.8314C240.6717,-567.3694 249.7565,-557.1489 257.9804,-547.8971"/>
<polygon fill="#c0c0c0" stroke="#c0c0c0" stroke-width="2" points="260.6049,-550.2127 264.6327,-540.4133 255.373,-545.5621 260.6049,-550.2127"/>
</g>
<!-- 8 -->
<g id="node9" class="node">
<title>8</title>
<path fill="none" stroke="#56d8a9" stroke-width="2" d="M444,-180C444,-180 388,-180 388,-180 382,-180 376,-174 376,-168 376,-168 376,-156 376,-156 376,-150 382,-144 388,-144 388,-144 444,-144 444,-144 450,-144 456,-150 456,-156 456,-156 456,-168 456,-168 456,-174 450,-180 444,-180"/>
<text text-anchor="middle" x="416" y="-159.5" font-family="sans" font-size="10.00" fill="#000000">dedeuplicate</text>
</g>
<!-- 7&#45;&gt;8 -->
<g id="edge16" class="edge">
<title>7&#45;&gt;8</title>
<path fill="none" stroke="#c0c0c0" stroke-width="2" d="M248.0435,-585.2735C300.2542,-568.4834 400,-526.408 400,-450 400,-450 400,-450 400,-306 400,-265.6291 406.2888,-219.2789 410.9811,-190.3146"/>
<polygon fill="#c0c0c0" stroke="#c0c0c0" stroke-width="2" points="414.4895,-190.5537 412.6848,-180.1137 407.5852,-189.4004 414.4895,-190.5537"/>
</g>
<!-- 8&#45;&gt;4 -->
<g id="edge11" class="edge">
<title>8&#45;&gt;4</title>
<path fill="none" stroke="#c0c0c0" stroke-width="2" d="M412.0307,-143.6987C406.6561,-123.2795 395.0869,-90.6675 373,-72 350.0538,-52.6062 269.2596,-34.3443 221.0502,-24.8322"/>
<polygon fill="#c0c0c0" stroke="#c0c0c0" stroke-width="2" points="221.4836,-21.3511 211.0001,-22.8827 220.1505,-28.2231 221.4836,-21.3511"/>
</g>
<!-- 8&#45;&gt;9 -->
<g id="edge19" class="edge">
<title>8&#45;&gt;9</title>
<path fill="none" stroke="#c0c0c0" stroke-width="2" d="M388.4947,-143.8314C374.682,-134.7074 357.7744,-123.539 342.9471,-113.7449"/>
<polygon fill="#c0c0c0" stroke="#c0c0c0" stroke-width="2" points="344.7696,-110.7541 334.4965,-108.1628 340.9114,-116.5949 344.7696,-110.7541"/>
</g>
<!-- 9&#45;&gt;4 -->
<g id="edge12" class="edge">
<title>9&#45;&gt;4</title>
<path fill="none" stroke="#c0c0c0" stroke-width="2" d="M275.9619,-71.8314C258.9929,-61.8983 237.8846,-49.5422 220.1724,-39.1741"/>
<polygon fill="#c0c0c0" stroke="#c0c0c0" stroke-width="2" points="221.6578,-35.9881 211.2595,-33.9568 218.1215,-42.0292 221.6578,-35.9881"/>
</g>
<!-- 10&#45;&gt;3 -->
<g id="edge5" class="edge">
<title>10&#45;&gt;3</title>
<path fill="none" stroke="#c0c0c0" stroke-width="2" d="M274.0937,-215.8314C278.5597,-207.7925 283.9075,-198.1666 288.8379,-189.2918"/>
<polygon fill="#c0c0c0" stroke="#c0c0c0" stroke-width="2" points="291.9735,-190.8546 293.7704,-180.4133 285.8544,-187.4551 291.9735,-190.8546"/>
</g>
<!-- 10&#45;&gt;4 -->
<g id="edge13" class="edge">
<title>10&#45;&gt;4</title>
<path fill="none" stroke="#c0c0c0" stroke-width="2" d="M255.8269,-215.6261C251.2931,-205.2366 245.6488,-191.9682 241,-180 222.8818,-133.3547 204.0206,-78.2402 193.1782,-45.8107"/>
<polygon fill="#c0c0c0" stroke="#c0c0c0" stroke-width="2" points="196.4309,-44.5003 189.9509,-36.1182 189.7894,-46.7118 196.4309,-44.5003"/>
</g>
<!-- 11&#45;&gt;10 -->
<g id="edge21" class="edge">
<title>11&#45;&gt;10</title>
<path fill="none" stroke="#c0c0c0" stroke-width="2" d="M278.9532,-287.8314C276.7906,-280.0463 274.2147,-270.7729 271.8152,-262.1347"/>
<polygon fill="#c0c0c0" stroke="#c0c0c0" stroke-width="2" points="275.1636,-261.1117 269.1148,-252.4133 268.419,-262.9852 275.1636,-261.1117"/>
</g>
</g>
</svg>
