<?xml version="1.0" encoding="UTF-8" standalone="no"?>
<!DOCTYPE svg PUBLIC "-//W3C//DTD SVG 1.1//EN"
 "http://www.w3.org/Graphics/SVG/1.1/DTD/svg11.dtd">
<!-- Generated by graphviz version 2.40.1 (0)
 -->
<!-- Title: snakemake_dag Pages: 1 -->
<svg width="430pt" height="620pt"
 viewBox="0.00 0.00 429.50 620.00" xmlns="http://www.w3.org/2000/svg" xmlns:xlink="http://www.w3.org/1999/xlink">
<g id="graph0" class="graph" transform="scale(1 1) rotate(0) translate(4 616)">
<title>snakemake_dag</title>
<polygon fill="#ffffff" stroke="transparent" points="-4,4 -4,-616 425.5,-616 425.5,4 -4,4"/>
<!-- 0 -->
<g id="node1" class="node">
<title>0</title>
<path fill="none" stroke="#d87556" stroke-width="2" d="M249,-108C249,-108 157,-108 157,-108 151,-108 145,-102 145,-96 145,-96 145,-84 145,-84 145,-78 151,-72 157,-72 157,-72 249,-72 249,-72 255,-72 261,-78 261,-84 261,-84 261,-96 261,-96 261,-102 255,-108 249,-108"/>
<text text-anchor="middle" x="203" y="-87.5" font-family="sans" font-size="10.00" fill="#000000">generate_PRS_step2</text>
</g>
<!-- 11 -->
<g id="node12" class="node">
<title>11</title>
<path fill="none" stroke="#569ad8" stroke-width="2" d="M266,-36C266,-36 236,-36 236,-36 230,-36 224,-30 224,-24 224,-24 224,-12 224,-12 224,-6 230,0 236,0 236,0 266,0 266,0 272,0 278,-6 278,-12 278,-12 278,-24 278,-24 278,-30 272,-36 266,-36"/>
<text text-anchor="middle" x="251" y="-15.5" font-family="sans" font-size="10.00" fill="#000000">all</text>
</g>
<!-- 0&#45;&gt;11 -->
<g id="edge16" class="edge">
<title>0&#45;&gt;11</title>
<path fill="none" stroke="#c0c0c0" stroke-width="2" d="M215.1124,-71.8314C220.5281,-63.7079 227.0242,-53.9637 232.9921,-45.0118"/>
<polygon fill="#c0c0c0" stroke="#c0c0c0" stroke-width="2" points="236.0896,-46.6753 238.7245,-36.4133 230.2653,-42.7923 236.0896,-46.6753"/>
</g>
<!-- 1 -->
<g id="node2" class="node">
<title>1</title>
<path fill="none" stroke="#d89c56" stroke-width="2" d="M409.5,-324C409.5,-324 326.5,-324 326.5,-324 320.5,-324 314.5,-318 314.5,-312 314.5,-312 314.5,-300 314.5,-300 314.5,-294 320.5,-288 326.5,-288 326.5,-288 409.5,-288 409.5,-288 415.5,-288 421.5,-294 421.5,-300 421.5,-300 421.5,-312 421.5,-312 421.5,-318 415.5,-324 409.5,-324"/>
<text text-anchor="middle" x="368" y="-303.5" font-family="sans" font-size="10.00" fill="#000000">check_relatedness</text>
</g>
<!-- 12 -->
<g id="node13" class="node">
<title>12</title>
<path fill="none" stroke="#d8bc56" stroke-width="2" d="M313.5,-252C313.5,-252 224.5,-252 224.5,-252 218.5,-252 212.5,-246 212.5,-240 212.5,-240 212.5,-228 212.5,-228 212.5,-222 218.5,-216 224.5,-216 224.5,-216 313.5,-216 313.5,-216 319.5,-216 325.5,-222 325.5,-228 325.5,-228 325.5,-240 325.5,-240 325.5,-246 319.5,-252 313.5,-252"/>
<text text-anchor="middle" x="269" y="-231.5" font-family="sans" font-size="10.00" fill="#000000">generate_final_data</text>
</g>
<!-- 1&#45;&gt;12 -->
<g id="edge18" class="edge">
<title>1&#45;&gt;12</title>
<path fill="none" stroke="#c0c0c0" stroke-width="2" d="M343.0181,-287.8314C330.7072,-278.8779 315.6893,-267.9558 302.4063,-258.2955"/>
<polygon fill="#c0c0c0" stroke="#c0c0c0" stroke-width="2" points="304.1199,-255.214 293.9739,-252.1628 300.0027,-260.8752 304.1199,-255.214"/>
</g>
<!-- 2 -->
<g id="node3" class="node">
<title>2</title>
<path fill="none" stroke="#567bd8" stroke-width="2" stroke-dasharray="5,2" d="M385.5,-540C385.5,-540 350.5,-540 350.5,-540 344.5,-540 338.5,-534 338.5,-528 338.5,-528 338.5,-516 338.5,-516 338.5,-510 344.5,-504 350.5,-504 350.5,-504 385.5,-504 385.5,-504 391.5,-504 397.5,-510 397.5,-516 397.5,-516 397.5,-528 397.5,-528 397.5,-534 391.5,-540 385.5,-540"/>
<text text-anchor="middle" x="368" y="-519.5" font-family="sans" font-size="10.00" fill="#000000">prune_ld</text>
</g>
<!-- 2&#45;&gt;1 -->
<g id="edge6" class="edge">
<title>2&#45;&gt;1</title>
<path fill="none" stroke="#c0c0c0" stroke-width="2" d="M391.3909,-503.838C401.6333,-494.3937 412.5459,-481.9182 418,-468 427.1558,-444.6356 408.441,-363.5202 407,-360 402.9913,-350.2073 396.8659,-340.5164 390.6491,-332.1054"/>
<polygon fill="#c0c0c0" stroke="#c0c0c0" stroke-width="2" points="393.3773,-329.9121 384.4768,-324.1648 387.8506,-334.2081 393.3773,-329.9121"/>
</g>
<!-- 4 -->
<g id="node5" class="node">
<title>4</title>
<path fill="none" stroke="#88d856" stroke-width="2" stroke-dasharray="5,2" d="M397,-468C397,-468 339,-468 339,-468 333,-468 327,-462 327,-456 327,-456 327,-444 327,-444 327,-438 333,-432 339,-432 339,-432 397,-432 397,-432 403,-432 409,-438 409,-444 409,-444 409,-456 409,-456 409,-462 403,-468 397,-468"/>
<text text-anchor="middle" x="368" y="-447.5" font-family="sans" font-size="10.00" fill="#000000">calculate_het</text>
</g>
<!-- 2&#45;&gt;4 -->
<g id="edge8" class="edge">
<title>2&#45;&gt;4</title>
<path fill="none" stroke="#c0c0c0" stroke-width="2" d="M368,-503.8314C368,-496.131 368,-486.9743 368,-478.4166"/>
<polygon fill="#c0c0c0" stroke="#c0c0c0" stroke-width="2" points="371.5001,-478.4132 368,-468.4133 364.5001,-478.4133 371.5001,-478.4132"/>
</g>
<!-- 3 -->
<g id="node4" class="node">
<title>3</title>
<path fill="none" stroke="#afd856" stroke-width="2" stroke-dasharray="5,2" d="M309,-612C309,-612 271,-612 271,-612 265,-612 259,-606 259,-600 259,-600 259,-588 259,-588 259,-582 265,-576 271,-576 271,-576 309,-576 309,-576 315,-576 321,-582 321,-588 321,-588 321,-600 321,-600 321,-606 315,-612 309,-612"/>
<text text-anchor="middle" x="290" y="-591.5" font-family="sans" font-size="10.00" fill="#000000">qc_target</text>
</g>
<!-- 3&#45;&gt;2 -->
<g id="edge7" class="edge">
<title>3&#45;&gt;2</title>
<path fill="none" stroke="#c0c0c0" stroke-width="2" d="M309.6827,-575.8314C319.1051,-567.1337 330.5401,-556.5783 340.7796,-547.1265"/>
<polygon fill="#c0c0c0" stroke="#c0c0c0" stroke-width="2" points="343.3495,-549.5175 348.3236,-540.1628 338.6016,-544.3738 343.3495,-549.5175"/>
</g>
<!-- 3&#45;&gt;4 -->
<g id="edge9" class="edge">
<title>3&#45;&gt;4</title>
<path fill="none" stroke="#c0c0c0" stroke-width="2" d="M296.8283,-575.9107C304.1031,-557.3714 316.4239,-527.9485 330,-504 335.2576,-494.7254 341.7102,-485.0629 347.7957,-476.5182"/>
<polygon fill="#c0c0c0" stroke="#c0c0c0" stroke-width="2" points="350.6478,-478.5473 353.701,-468.4019 344.9874,-474.4289 350.6478,-478.5473"/>
</g>
<!-- 7 -->
<g id="node8" class="node">
<title>7</title>
<path fill="none" stroke="#56d88a" stroke-width="2" stroke-dasharray="5,2" d="M233.5,-324C233.5,-324 168.5,-324 168.5,-324 162.5,-324 156.5,-318 156.5,-312 156.5,-312 156.5,-300 156.5,-300 156.5,-294 162.5,-288 168.5,-288 168.5,-288 233.5,-288 233.5,-288 239.5,-288 245.5,-294 245.5,-300 245.5,-300 245.5,-312 245.5,-312 245.5,-318 239.5,-324 233.5,-324"/>
<text text-anchor="middle" x="201" y="-303.5" font-family="sans" font-size="10.00" fill="#000000">strand_flipping</text>
</g>
<!-- 3&#45;&gt;7 -->
<g id="edge12" class="edge">
<title>3&#45;&gt;7</title>
<path fill="none" stroke="#c0c0c0" stroke-width="2" d="M276.8864,-575.8473C260.5826,-552.2591 233.2858,-509.2026 220,-468 205.4774,-422.9619 201.8186,-367.6931 201.0286,-334.7414"/>
<polygon fill="#c0c0c0" stroke="#c0c0c0" stroke-width="2" points="204.5237,-334.4099 200.8592,-324.4691 197.5247,-334.5255 204.5237,-334.4099"/>
</g>
<!-- 9 -->
<g id="node10" class="node">
<title>9</title>
<path fill="none" stroke="#56d8a9" stroke-width="2" stroke-dasharray="5,2" d="M297,-468C297,-468 241,-468 241,-468 235,-468 229,-462 229,-456 229,-456 229,-444 229,-444 229,-438 235,-432 241,-432 241,-432 297,-432 297,-432 303,-432 309,-438 309,-444 309,-444 309,-456 309,-456 309,-462 303,-468 297,-468"/>
<text text-anchor="middle" x="269" y="-447.5" font-family="sans" font-size="10.00" fill="#000000">dedeuplicate</text>
</g>
<!-- 3&#45;&gt;9 -->
<g id="edge14" class="edge">
<title>3&#45;&gt;9</title>
<path fill="none" stroke="#c0c0c0" stroke-width="2" d="M287.3403,-575.7623C283.7585,-551.201 277.3486,-507.2474 273.135,-478.3541"/>
<polygon fill="#c0c0c0" stroke="#c0c0c0" stroke-width="2" points="276.5446,-477.4798 271.6381,-468.0896 269.6179,-478.4901 276.5446,-477.4798"/>
</g>
<!-- 10 -->
<g id="node11" class="node">
<title>10</title>
<path fill="none" stroke="#56c1d8" stroke-width="2" stroke-dasharray="5,2" d="M386,-396C386,-396 350,-396 350,-396 344,-396 338,-390 338,-384 338,-384 338,-372 338,-372 338,-366 344,-360 350,-360 350,-360 386,-360 386,-360 392,-360 398,-366 398,-372 398,-372 398,-384 398,-384 398,-390 392,-396 386,-396"/>
<text text-anchor="middle" x="368" y="-375.5" font-family="sans" font-size="10.00" fill="#000000">filter_het</text>
</g>
<!-- 4&#45;&gt;10 -->
<g id="edge15" class="edge">
<title>4&#45;&gt;10</title>
<path fill="none" stroke="#c0c0c0" stroke-width="2" d="M368,-431.8314C368,-424.131 368,-414.9743 368,-406.4166"/>
<polygon fill="#c0c0c0" stroke="#c0c0c0" stroke-width="2" points="371.5001,-406.4132 368,-396.4133 364.5001,-406.4133 371.5001,-406.4132"/>
</g>
<!-- 5 -->
<g id="node6" class="node">
<title>5</title>
<path fill="none" stroke="#68d856" stroke-width="2" d="M104,-180C104,-180 12,-180 12,-180 6,-180 0,-174 0,-168 0,-168 0,-156 0,-156 0,-150 6,-144 12,-144 12,-144 104,-144 104,-144 110,-144 116,-150 116,-156 116,-156 116,-168 116,-168 116,-174 110,-180 104,-180"/>
<text text-anchor="middle" x="58" y="-159.5" font-family="sans" font-size="10.00" fill="#000000">generate_PRS_step1</text>
</g>
<!-- 5&#45;&gt;0 -->
<g id="edge1" class="edge">
<title>5&#45;&gt;0</title>
<path fill="none" stroke="#c0c0c0" stroke-width="2" d="M94.5896,-143.8314C113.7239,-134.3302 137.3229,-122.6121 157.6122,-112.5374"/>
<polygon fill="#c0c0c0" stroke="#c0c0c0" stroke-width="2" points="159.2735,-115.6203 166.6735,-108.038 156.1603,-109.3506 159.2735,-115.6203"/>
</g>
<!-- 6 -->
<g id="node7" class="node">
<title>6</title>
<path fill="none" stroke="#56d86b" stroke-width="2" stroke-dasharray="5,2" d="M153,-396C153,-396 121,-396 121,-396 115,-396 109,-390 109,-384 109,-384 109,-372 109,-372 109,-366 115,-360 121,-360 121,-360 153,-360 153,-360 159,-360 165,-366 165,-372 165,-372 165,-384 165,-384 165,-390 159,-396 153,-396"/>
<text text-anchor="middle" x="137" y="-375.5" font-family="sans" font-size="10.00" fill="#000000">qc_base</text>
</g>
<!-- 6&#45;&gt;7 -->
<g id="edge11" class="edge">
<title>6&#45;&gt;7</title>
<path fill="none" stroke="#c0c0c0" stroke-width="2" d="M153.1499,-359.8314C160.6717,-351.3694 169.7565,-341.1489 177.9804,-331.8971"/>
<polygon fill="#c0c0c0" stroke="#c0c0c0" stroke-width="2" points="180.6049,-334.2127 184.6327,-324.4133 175.373,-329.5621 180.6049,-334.2127"/>
</g>
<!-- 8 -->
<g id="node9" class="node">
<title>8</title>
<path fill="none" stroke="#ced856" stroke-width="2" d="M178,-252C178,-252 94,-252 94,-252 88,-252 82,-246 82,-240 82,-240 82,-228 82,-228 82,-222 88,-216 94,-216 94,-216 178,-216 178,-216 184,-216 190,-222 190,-228 190,-228 190,-240 190,-240 190,-246 184,-252 178,-252"/>
<text text-anchor="middle" x="136" y="-231.5" font-family="sans" font-size="10.00" fill="#000000">update_effect_size</text>
</g>
<!-- 6&#45;&gt;8 -->
<g id="edge13" class="edge">
<title>6&#45;&gt;8</title>
<path fill="none" stroke="#c0c0c0" stroke-width="2" d="M136.8733,-359.7623C136.7028,-335.201 136.3976,-291.2474 136.1969,-262.3541"/>
<polygon fill="#c0c0c0" stroke="#c0c0c0" stroke-width="2" points="139.6951,-262.065 136.1256,-252.0896 132.6952,-262.1137 139.6951,-262.065"/>
</g>
<!-- 7&#45;&gt;12 -->
<g id="edge19" class="edge">
<title>7&#45;&gt;12</title>
<path fill="none" stroke="#c0c0c0" stroke-width="2" d="M218.1593,-287.8314C226.1511,-279.3694 235.8038,-269.1489 244.5416,-259.8971"/>
<polygon fill="#c0c0c0" stroke="#c0c0c0" stroke-width="2" points="247.288,-262.0866 251.6097,-252.4133 242.1989,-257.2802 247.288,-262.0866"/>
</g>
<!-- 8&#45;&gt;0 -->
<g id="edge2" class="edge">
<title>8&#45;&gt;0</title>
<path fill="none" stroke="#c0c0c0" stroke-width="2" d="M139.5342,-215.7176C143.5886,-197.0244 151.2343,-167.4811 163,-144 167.7823,-134.4559 174.256,-124.8358 180.6011,-116.4133"/>
<polygon fill="#c0c0c0" stroke="#c0c0c0" stroke-width="2" points="183.4348,-118.4713 186.8359,-108.4372 177.9198,-114.1603 183.4348,-118.4713"/>
</g>
<!-- 8&#45;&gt;5 -->
<g id="edge10" class="edge">
<title>8&#45;&gt;5</title>
<path fill="none" stroke="#c0c0c0" stroke-width="2" d="M116.3173,-215.8314C106.8949,-207.1337 95.4599,-196.5783 85.2204,-187.1265"/>
<polygon fill="#c0c0c0" stroke="#c0c0c0" stroke-width="2" points="87.3984,-184.3738 77.6764,-180.1628 82.6505,-189.5175 87.3984,-184.3738"/>
</g>
<!-- 13 -->
<g id="node14" class="node">
<title>13</title>
<path fill="none" stroke="#56d8d0" stroke-width="2" d="M222,-180C222,-180 184,-180 184,-180 178,-180 172,-174 172,-168 172,-168 172,-156 172,-156 172,-150 178,-144 184,-144 184,-144 222,-144 222,-144 228,-144 234,-150 234,-156 234,-156 234,-168 234,-168 234,-174 228,-180 222,-180"/>
<text text-anchor="middle" x="203" y="-159.5" font-family="sans" font-size="10.00" fill="#000000">clumping</text>
</g>
<!-- 8&#45;&gt;13 -->
<g id="edge21" class="edge">
<title>8&#45;&gt;13</title>
<path fill="none" stroke="#c0c0c0" stroke-width="2" d="M152.9069,-215.8314C160.7813,-207.3694 170.292,-197.1489 178.9013,-187.8971"/>
<polygon fill="#c0c0c0" stroke="#c0c0c0" stroke-width="2" points="181.6153,-190.1183 185.8654,-180.4133 176.4908,-185.3497 181.6153,-190.1183"/>
</g>
<!-- 9&#45;&gt;12 -->
<g id="edge20" class="edge">
<title>9&#45;&gt;12</title>
<path fill="none" stroke="#c0c0c0" stroke-width="2" d="M269,-431.9555C269,-394.3938 269,-307.5541 269,-262.4103"/>
<polygon fill="#c0c0c0" stroke="#c0c0c0" stroke-width="2" points="272.5001,-262.145 269,-252.1451 265.5001,-262.1451 272.5001,-262.145"/>
</g>
<!-- 10&#45;&gt;1 -->
<g id="edge5" class="edge">
<title>10&#45;&gt;1</title>
<path fill="none" stroke="#c0c0c0" stroke-width="2" d="M368,-359.8314C368,-352.131 368,-342.9743 368,-334.4166"/>
<polygon fill="#c0c0c0" stroke="#c0c0c0" stroke-width="2" points="371.5001,-334.4132 368,-324.4133 364.5001,-334.4133 371.5001,-334.4132"/>
</g>
<!-- 12&#45;&gt;0 -->
<g id="edge3" class="edge">
<title>12&#45;&gt;0</title>
<path fill="none" stroke="#c0c0c0" stroke-width="2" d="M265.7126,-215.7131C261.9007,-197.0163 254.6105,-167.4702 243,-144 238.2666,-134.4316 231.8068,-124.8046 225.4595,-116.3832"/>
<polygon fill="#c0c0c0" stroke="#c0c0c0" stroke-width="2" points="228.1381,-114.1269 219.2177,-108.4106 222.6263,-118.4421 228.1381,-114.1269"/>
</g>
<!-- 12&#45;&gt;11 -->
<g id="edge17" class="edge">
<title>12&#45;&gt;11</title>
<path fill="none" stroke="#c0c0c0" stroke-width="2" d="M271.1589,-215.8533C274.2886,-185.7193 278.8073,-123.5668 270,-72 268.5012,-63.2245 265.7249,-53.9785 262.7487,-45.6659"/>
<polygon fill="#c0c0c0" stroke="#c0c0c0" stroke-width="2" points="265.9273,-44.1782 259.0917,-36.0835 259.3874,-46.6742 265.9273,-44.1782"/>
</g>
<!-- 12&#45;&gt;13 -->
<g id="edge22" class="edge">
<title>12&#45;&gt;13</title>
<path fill="none" stroke="#c0c0c0" stroke-width="2" d="M252.3454,-215.8314C244.5886,-207.3694 235.2198,-197.1489 226.739,-187.8971"/>
<polygon fill="#c0c0c0" stroke="#c0c0c0" stroke-width="2" points="229.2162,-185.4198 219.8788,-180.4133 224.0561,-190.1499 229.2162,-185.4198"/>
</g>
<!-- 13&#45;&gt;0 -->
<g id="edge4" class="edge">
<title>13&#45;&gt;0</title>
<path fill="none" stroke="#c0c0c0" stroke-width="2" d="M203,-143.8314C203,-136.131 203,-126.9743 203,-118.4166"/>
<polygon fill="#c0c0c0" stroke="#c0c0c0" stroke-width="2" points="206.5001,-118.4132 203,-108.4133 199.5001,-118.4133 206.5001,-118.4132"/>
</g>
</g>
</svg>
